<svg xmlns="http://www.w3.org/2000/svg" viewBox="0 0 240 240"><rect width="240" height="240" rx="24" fill="#F3EFE6"/><g transform="translate(0 8)"><rect x="30" y="150" width="48" height="56" rx="6" fill="#C9C2B2"/><rect x="96" y="150" width="48" height="56" rx="6" fill="#fff" stroke="#4F7F67" stroke-width="3" stroke-dasharray="6 4"/><rect x="162" y="150" width="48" height="56" rx="6" fill="#C9C2B2"/></g><path d="M120 40 c-22 0-34 18-34 40 v26 l-10 14 h88 l-10-14 V80 c0-22-12-40-34-40z" fill="#4F7F67"/><circle cx="120" cy="36" r="6" fill="#4F7F67"/><path d="M108 124 a12 12 0 0 0 24 0z" fill="#3E6653"/><g stroke="#8FB39F" stroke-width="4" stroke-linecap="round" fill="none"><path d="M64 62 q-10 18 0 36"/><path d="M176 62 q10 18 0 36"/></g></svg>
